# Blender v2.79 (sub 0) OBJ File: ''
# www.blender.org
mtllib cone.mtl
o Cone
v 0.000000 0.999998 -0.500000
v -0.000000 -0.000002 0.000000
v -0.191342 0.999998 -0.461940
v -0.353553 0.999998 -0.353553
v -0.461940 0.999998 -0.191342
v -0.500000 0.999999 0.000000
v -0.461940 0.999998 0.191342
v -0.353553 0.999998 0.353553
v -0.191342 0.999998 0.461940
v -0.000000 0.999998 0.500000
v 0.191342 0.999998 0.461940
v 0.353553 0.999998 0.353554
v 0.461940 0.999998 0.191342
v 0.500000 0.999998 -0.000000
v 0.461940 0.999998 -0.191342
v 0.353553 0.999998 -0.353554
v 0.191342 0.999998 -0.461940
vn -0.1752 -0.4403 -0.8806
vn -0.4988 -0.4403 -0.7465
vn -0.7465 -0.4403 -0.4988
vn -0.8806 -0.4403 -0.1752
vn -0.8806 -0.4403 0.1752
vn -0.7465 -0.4403 0.4988
vn -0.4988 -0.4403 0.7465
vn -0.1752 -0.4403 0.8806
vn 0.1752 -0.4403 0.8806
vn 0.4988 -0.4403 0.7465
vn 0.7465 -0.4403 0.4988
vn 0.8806 -0.4403 0.1752
vn 0.8806 -0.4403 -0.1752
vn 0.7465 -0.4403 -0.4988
vn 0.4988 -0.4403 -0.7465
vn 0.1752 -0.4403 -0.8806
usemtl None
s off
f 1//1 2//1 3//1
f 3//2 2//2 4//2
f 4//3 2//3 5//3
f 5//4 2//4 6//4
f 6//5 2//5 7//5
f 7//6 2//6 8//6
f 8//7 2//7 9//7
f 9//8 2//8 10//8
f 10//9 2//9 11//9
f 11//10 2//10 12//10
f 12//11 2//11 13//11
f 13//12 2//12 14//12
f 14//13 2//13 15//13
f 15//14 2//14 16//14
f 16//15 2//15 17//15
f 17//16 2//16 1//16
