# Blender v2.79 (sub 0) OBJ File: ''
# www.blender.org
mtllib voxel_scene_wall2.mtl
o Cube.006_Cube.007
v 0.500000 -0.500000 -0.500000
v -0.500000 -0.500000 -0.500000
v 0.500000 0.500000 -0.499999
v -0.500000 0.500000 -0.500000
v 0.500000 -0.300000 -0.500000
v 0.500000 -0.100000 -0.500000
v 0.500000 0.100000 -0.500000
v 0.500000 0.300000 -0.499999
v -0.500000 -0.300000 -0.500000
v -0.500000 -0.100000 -0.500000
v -0.500000 0.100000 -0.500000
v -0.500000 0.300000 -0.500000
v 0.300000 0.500000 -0.499999
v 0.100000 0.500000 -0.500000
v -0.100000 0.500000 -0.500000
v -0.300000 0.500000 -0.500000
v 0.300000 -0.500000 -0.500000
v 0.100000 -0.500000 -0.500000
v -0.100000 -0.500000 -0.500000
v -0.300000 -0.500000 -0.500000
v -0.300000 0.300000 -0.500000
v -0.100000 0.300000 -0.500000
v 0.100000 0.300000 -0.500000
v 0.300000 0.300000 -0.500000
v -0.300000 0.100000 -0.500000
v -0.100000 0.100000 -0.500000
v 0.100000 0.100000 -0.500000
v 0.300000 0.100000 -0.500000
v -0.300000 -0.100000 -0.500000
v -0.100000 -0.100000 -0.500000
v 0.100000 -0.100000 -0.500000
v 0.300000 -0.100000 -0.500000
v -0.300000 -0.300000 -0.500000
v -0.100000 -0.300000 -0.500000
v 0.100000 -0.300000 -0.500000
v 0.300000 -0.300000 -0.500000
vn -0.0000 -0.0000 1.0000
usemtl Material.001
s 1
f 9//1 20//1 33//1
f 4//1 21//1 16//1
f 12//1 25//1 21//1
f 11//1 29//1 25//1
f 10//1 33//1 29//1
f 32//1 5//1 6//1
f 31//1 36//1 32//1
f 30//1 35//1 31//1
f 29//1 34//1 30//1
f 28//1 6//1 7//1
f 27//1 32//1 28//1
f 26//1 31//1 27//1
f 25//1 30//1 26//1
f 24//1 7//1 8//1
f 23//1 28//1 24//1
f 22//1 27//1 23//1
f 21//1 26//1 22//1
f 13//1 8//1 3//1
f 14//1 24//1 13//1
f 15//1 23//1 14//1
f 16//1 22//1 15//1
f 36//1 1//1 5//1
f 35//1 17//1 36//1
f 34//1 18//1 35//1
f 33//1 19//1 34//1
f 9//1 2//1 20//1
f 4//1 12//1 21//1
f 12//1 11//1 25//1
f 11//1 10//1 29//1
f 10//1 9//1 33//1
f 32//1 36//1 5//1
f 31//1 35//1 36//1
f 30//1 34//1 35//1
f 29//1 33//1 34//1
f 28//1 32//1 6//1
f 27//1 31//1 32//1
f 26//1 30//1 31//1
f 25//1 29//1 30//1
f 24//1 28//1 7//1
f 23//1 27//1 28//1
f 22//1 26//1 27//1
f 21//1 25//1 26//1
f 13//1 24//1 8//1
f 14//1 23//1 24//1
f 15//1 22//1 23//1
f 16//1 21//1 22//1
f 36//1 17//1 1//1
f 35//1 18//1 17//1
f 34//1 19//1 18//1
f 33//1 20//1 19//1
